<?xml version="1.0" encoding="UTF-8"?>
<!DOCTYPE svg PUBLIC "-//W3C//DTD SVG 1.1//EN" "http://www.w3.org/Graphics/SVG/1.1/DTD/svg11.dtd">
<!-- Creator: CorelDRAW 2020 (64-Bit) -->
<svg xmlns="http://www.w3.org/2000/svg" xml:space="preserve" width="60.958mm" height="90.5054mm" version="1.1" style="shape-rendering:geometricPrecision; text-rendering:geometricPrecision; image-rendering:optimizeQuality; fill-rule:evenodd; clip-rule:evenodd"
viewBox="0 0 3994.64 5930.91"
 xmlns:xlink="http://www.w3.org/1999/xlink"
 xmlns:xodm="http://www.corel.com/coreldraw/odm/2003">
 <defs>
  <style type="text/css">
   <![CDATA[
    .fil0 {fill:#4E73DF;fill-rule:nonzero}
    .fil1 {fill:#72351C;fill-rule:nonzero}
    .fil3 {fill:#FDA57D;fill-rule:nonzero}
    .fil2 {fill:black;fill-rule:nonzero;fill-opacity:0.101961}
   ]]>
  </style>
 </defs>
 <g id="Layer_x0020_1">
  <metadata id="CorelCorpID_0Corel-Layer"/>
  <path class="fil0" d="M2039.61 5930.88c695.54,0 1375.42,-203.65 1955.03,-585.88 -131.59,-717.47 -629.74,-758.2 -629.74,-758.2l-2747.69 0c0,0 -469.96,37.6 -617.21,695.54 595.28,426.1 1309.62,651.67 2039.61,648.54z"/>
  <circle class="fil1" cx="2002.02" cy="2290.26" r="1716.91"/>
  <path class="fil2" d="M1447.47 3718.94l1099.7 0 0 0 0 880.39c0,303.9 -244.38,551.42 -548.28,551.42 0,0 0,0 0,0l0 0c-303.91,0 -548.28,-247.51 -548.28,-548.28l-3.13 -883.52 0 0z"/>
  <path class="fil3" d="M1554 3678.21l889.78 0c59.53,0 103.39,46.99 103.39,106.52l0 773.86c0,303.91 -247.51,548.29 -548.28,548.29l0 0c-303.91,0 -548.28,-247.51 -548.28,-548.29l0 -773.86c-3.13,-59.53 43.87,-106.52 103.39,-106.52l0 0z"/>
  <circle class="fil3" cx="2002.02" cy="2631.77" r="1575.92"/>
  <path class="fil2" d="M880.39 1196.83c0,0 664.2,1347.21 2537.77,563.95l-435.49 -683 -773.87 -278.84 -1328.41 397.9z"/>
  <path class="fil1" d="M880.39 1178.03c0,0 664.2,1347.21 2537.77,563.95l-435.49 -683 -773.87 -278.85 -1328.41 397.9z"/>
  <path class="fil2" d="M1450.61 4132.5c354.03,131.59 745.66,134.72 1099.7,3.13l0 -134.72 -1099.7 0 0 131.59z"/>
  <path class="fil1" d="M874.12 1087.17c43.87,-137.86 122.19,-263.18 225.58,-366.57 310.17,-307.03 817.73,-369.7 1077.77,-720.6 56.4,97.12 21.93,222.45 -75.2,278.84 -6.26,3.13 -12.53,6.26 -18.8,9.4 250.65,-3.14 538.89,-25.07 679.88,-228.72 72.06,166.06 40.73,357.17 -78.33,491.89 222.45,9.4 457.43,159.79 473.09,382.24 9.4,147.25 -81.46,285.11 -203.65,372.83 -122.19,87.72 -266.31,122.18 -410.43,153.52 -422.96,90.86 -1942.49,479.36 -1669.91,-372.83z"/>
  <path class="fil1" d="M3577.95 2644.3l-40.73 0 -814.59 723.74c-783.26,-366.57 -1356.61,0 -1356.61,0l-852.19 -692.41 -84.59 9.4c25.07,870.99 748.8,1554 1619.79,1532.06 849.05,-25.06 1528.93,-720.6 1528.93,-1572.79l0 0zm-1575.93 1002.57c-307.04,0 -554.55,-62.66 -554.55,-137.85 0,-75.2 247.51,-137.86 554.55,-137.86 307.04,0 554.55,62.66 554.55,137.86 0,75.19 -250.64,137.85 -554.55,137.85l0 0z"/>
  <ellipse class="fil3" cx="3577.95" cy="2628.63" rx="147.25" ry="275.71"/>
  <ellipse class="fil3" cx="426.09" cy="2628.63" rx="147.25" ry="275.71"/>
 </g>
</svg>
